<svg viewBox="0 0 12 12" fill="none" xmlns="http://www.w3.org/2000/svg" style="height: 12px; width: 12px;"><path d="M7.56403 6L11.6761 1.88794C12.108 1.45606 12.108 0.755801 11.6761 0.323915C11.2442 -0.107971 10.5439 -0.107971 10.1121 0.323915L6 4.43599L1.88794 0.323929C1.45606 -0.107957 0.755801 -0.107957 0.323915 0.323929C-0.107972 0.755815 -0.107972 1.45607 0.323915 1.88796L4.43597 6L0.323929 10.1121C-0.107957 10.5439 -0.107957 11.2442 0.323929 11.6761C0.755815 12.108 1.45606 12.108 1.88794 11.6761L6 7.56403L10.1121 11.6761C10.5439 12.108 11.2442 12.108 11.6761 11.6761C12.108 11.2442 12.108 10.5439 11.6761 10.1121L7.56403 6Z" fill="#D9D9D9"></path></svg>